<svg width="26" height="27" viewBox="0 0 26 27" fill="none" xmlns="http://www.w3.org/2000/svg">
<path d="M9.39813 26.5305C7.28714 26.5305 5.29622 25.9144 3.64061 24.7485C3.33136 24.5309 3.03399 24.293 2.75645 24.0422C0.823875 22.295 -0.148644 19.9678 0.0184454 17.4894C0.144754 15.6162 0.969442 13.8104 2.34184 12.4046C4.15944 10.5428 6.66522 9.51731 9.3987 9.51731C9.86825 9.51731 10.3423 9.54943 10.8091 9.61265L11.5341 9.7111V15.597L10.4177 15.2597C10.0925 15.1613 9.7544 15.1115 9.41229 15.1115C8.54796 15.1115 7.73856 15.4214 7.13307 15.9836C6.53042 16.5432 6.20587 17.2832 6.21833 18.0682C6.23475 19.0802 6.81759 19.9974 7.77708 20.5228C8.21888 20.7643 8.72184 20.9057 9.23274 20.9316C9.63602 20.9519 10.0342 20.9037 10.4171 20.7881C11.7261 20.3927 12.6057 19.2818 12.6057 18.0242L12.6114 11.9201V0H18.7603L18.7676 0.770007C18.771 1.11874 18.8101 1.46747 18.8837 1.80532C19.1726 3.13392 19.9871 4.31795 21.1771 5.13873C22.2335 5.8678 23.4943 6.25281 24.8219 6.25281C24.8531 6.25281 24.8531 6.25281 25.1369 6.27094L25.927 6.32172V11.0889V11.8662L25.6438 11.8657H25.0791C25.0746 11.8657 25.07 11.8657 25.0649 11.8657H24.7936C24.7925 11.8657 24.7908 11.8657 24.7891 11.8657C23.1516 11.8657 21.6172 11.5802 20.0964 10.9931C19.6433 10.8179 19.2021 10.6179 18.7761 10.3946L18.7954 18.0537C18.7852 20.3192 17.8064 22.4442 16.0398 24.0417C14.6062 25.3377 12.7971 26.1657 10.8079 26.4352C10.344 26.4984 9.86995 26.5305 9.39813 26.5305ZM9.39813 11.0718C7.15573 11.0718 5.09968 11.9128 3.6089 13.4399C2.48968 14.5866 1.81679 16.0587 1.7137 17.5848C1.57776 19.6082 2.37186 21.5089 3.95044 22.9359C4.1787 23.1422 4.42282 23.3375 4.67657 23.5163C6.03255 24.4713 7.6655 24.976 9.39813 24.976C9.78669 24.976 10.1769 24.9496 10.5593 24.8978C12.1888 24.677 13.6711 23.9987 14.8458 22.9365C16.289 21.6317 17.0882 19.8974 17.0967 18.0527L17.0701 7.35807L18.4425 8.32654C19.1511 8.82658 19.9305 9.24215 20.758 9.56187C21.8891 9.99869 23.0293 10.2412 24.2272 10.2987V7.78816C22.7466 7.6866 21.3482 7.20521 20.1536 6.3808C18.63 5.32994 17.5872 3.81273 17.2168 2.10949C17.1772 1.92657 17.1449 1.74158 17.1211 1.55504H14.31V11.9206L14.3043 18.0247C14.3043 19.9539 12.9563 21.6576 10.9495 22.2639C10.3644 22.4406 9.75554 22.5141 9.13929 22.4836C8.35425 22.4442 7.58167 22.2271 6.90425 21.8566C5.43556 21.0529 4.54347 19.645 4.51854 18.091C4.49929 16.8868 4.99716 15.7509 5.92153 14.8923C6.84874 14.0311 8.08804 13.557 9.41116 13.557C9.55276 13.557 9.69323 13.5627 9.8337 13.5736V11.0827C9.6887 11.0755 9.54313 11.0718 9.39813 11.0718Z" fill="black"/>
</svg>
