<svg width="29" height="29" viewBox="0 0 29 29" fill="none" xmlns="http://www.w3.org/2000/svg">
<g clip-path="url(#clip0_0_287)">
<path d="M18.9637 13.1967L12.5569 9.6912C12.1885 9.48964 11.7531 9.49716 11.392 9.71111C11.0307 9.92528 10.8152 10.3036 10.8152 10.7236V17.6744C10.8152 18.0924 11.0294 18.47 11.3882 18.6844C11.5756 18.7964 11.7834 18.8526 11.9916 18.8526C12.1823 18.8526 12.3735 18.8055 12.5494 18.7108L18.9564 15.2657C19.3367 15.061 19.5741 14.6656 19.5759 14.2335C19.5774 13.8014 19.3429 13.4043 18.9637 13.1967ZM12.5146 16.8V11.605L17.3029 14.2251L12.5146 16.8Z" fill="#121212"/>
<path d="M28.7866 8.69588L28.7853 8.68261C28.7607 8.44919 28.5162 6.37296 27.5069 5.31692C26.3402 4.07481 25.0176 3.92391 24.3815 3.85156C24.3288 3.84559 24.2806 3.84006 24.2374 3.8343L24.1868 3.82899C20.3529 3.55022 14.563 3.51216 14.505 3.51194L14.4999 3.51172L14.4949 3.51194C14.4369 3.51216 8.64695 3.55022 4.77859 3.82899L4.72748 3.8343C4.68633 3.83984 4.64097 3.84492 4.59163 3.85068C3.96284 3.92325 2.65436 4.07436 1.48438 5.36139C0.523039 6.40614 0.245147 8.4379 0.216605 8.66624L0.213287 8.69588C0.204658 8.79301 0 11.1053 0 13.4267V15.5967C0 17.9181 0.204658 20.2304 0.213287 20.3278L0.214835 20.3424C0.239394 20.5721 0.483656 22.6102 1.48836 23.6667C2.58532 24.8672 3.97235 25.0261 4.71841 25.1115C4.83634 25.125 4.93789 25.1365 5.00714 25.1487L5.07418 25.158C7.28781 25.3686 14.2282 25.4724 14.5225 25.4766L14.5314 25.4768L14.5402 25.4766C14.5982 25.4763 20.3879 25.4383 24.2217 25.1595L24.2724 25.1542C24.3209 25.1478 24.3753 25.142 24.435 25.1358C25.0603 25.0695 26.3617 24.9316 27.5155 23.6621C28.4768 22.6171 28.755 20.5853 28.7833 20.3572L28.7866 20.3276C28.7952 20.2302 29.0001 17.9181 29.0001 15.5967V13.4267C28.9999 11.1053 28.7952 8.79324 28.7866 8.69588ZM27.3005 15.5967C27.3005 17.7453 27.1128 19.9581 27.0951 20.1612C27.023 20.7207 26.7298 22.0062 26.2615 22.5153C25.5393 23.3098 24.7974 23.3886 24.2558 23.4459C24.1903 23.4528 24.1297 23.4594 24.0748 23.4663C20.3666 23.7344 14.7953 23.7756 14.5387 23.7771C14.2508 23.7729 7.41193 23.6683 5.26579 23.4689C5.15583 23.451 5.03701 23.4373 4.91178 23.4231C4.27657 23.3503 3.40705 23.2508 2.73843 22.5153L2.72272 22.4985C2.26252 22.019 1.97777 20.817 1.90542 20.1678C1.89192 20.0143 1.69943 17.7754 1.69943 15.5967V13.4267C1.69943 11.2806 1.88661 9.07024 1.90475 8.86293C1.99082 8.20382 2.28951 6.99622 2.73843 6.50814C3.48272 5.68951 4.2675 5.59879 4.78656 5.53883C4.83612 5.53308 4.88236 5.52777 4.92506 5.52224C8.68722 5.25275 14.2986 5.21271 14.4999 5.21116C14.7013 5.21249 20.3107 5.25275 24.0394 5.52224C24.0852 5.52799 24.1352 5.53374 24.189 5.53994C24.7229 5.60078 25.5298 5.69283 26.2703 6.4827L26.2772 6.49C26.7374 6.96945 27.0221 8.19254 27.0945 8.85474C27.1073 8.99966 27.3005 11.2434 27.3005 13.4267V15.5967Z" fill="#121212"/>
</g>
<defs>
<clipPath id="clip0_0_287">
<rect width="29" height="29" fill="white"/>
</clipPath>
</defs>
</svg>
