<svg width="29" height="29" viewBox="0 0 29 29" fill="none" xmlns="http://www.w3.org/2000/svg">
<path d="M22.2031 29H6.79688C3.04908 29 0 25.9509 0 22.2031V6.79688C0 3.04908 3.04908 0 6.79688 0H22.2031C25.9509 0 29 3.04908 29 6.79688V22.2031C29 25.9509 25.9509 29 22.2031 29ZM6.79688 2.26562C4.29834 2.26562 2.26562 4.29834 2.26562 6.79688V22.2031C2.26562 24.7017 4.29834 26.7344 6.79688 26.7344H22.2031C24.7017 26.7344 26.7344 24.7017 26.7344 22.2031V6.79688C26.7344 4.29834 24.7017 2.26562 22.2031 2.26562H6.79688ZM22.4863 5.09766C21.7043 5.09766 21.0703 5.73163 21.0703 6.51367C21.0703 7.29571 21.7043 7.92969 22.4863 7.92969C23.2684 7.92969 23.9023 7.29571 23.9023 6.51367C23.9023 5.73163 23.2684 5.09766 22.4863 5.09766ZM14.5 21.8633C10.4398 21.8633 7.13672 18.5602 7.13672 14.5C7.54113 4.73159 21.4603 4.73442 21.8633 14.5001C21.8633 18.5602 18.5602 21.8633 14.5 21.8633ZM14.5 9.40234C11.6892 9.40234 9.40234 11.6892 9.40234 14.5C9.68237 21.2627 19.3186 21.2607 19.5977 14.4999C19.5977 11.6892 17.3108 9.40234 14.5 9.40234Z" fill="#121212"/>
</svg>
